<svg xmlns="http://www.w3.org/2000/svg" viewBox="0 0 64 64">
  <defs>
    <radialGradient id="bg" cx="50%" cy="45%" r="55%">
      <stop offset="0%" stop-color="#1e3a5f"/>
      <stop offset="100%" stop-color="#0a1628"/>
    </radialGradient>
    <radialGradient id="iris" cx="45%" cy="42%" r="55%">
      <stop offset="0%" stop-color="#7fefec"/>
      <stop offset="100%" stop-color="#2a9d97"/>
    </radialGradient>
  </defs>
  <!-- BG -->
  <circle cx="32" cy="32" r="31" fill="url(#bg)"/>
  <circle cx="32" cy="32" r="31" fill="none" stroke="#4ecdc4" stroke-width="1" opacity="0.5"/>
  <!-- Ears -->
  <ellipse cx="17" cy="18" rx="7" ry="6.5" fill="#edf3f7"/>
  <ellipse cx="47" cy="18" rx="7" ry="6.5" fill="#edf3f7"/>
  <ellipse cx="17" cy="18" rx="4" ry="3.5" fill="#aecfe4"/>
  <ellipse cx="47" cy="18" rx="4" ry="3.5" fill="#aecfe4"/>
  <!-- Face -->
  <ellipse cx="32" cy="35" rx="19" ry="17" fill="#edf3f7"/>
  <!-- Eyes -->
  <ellipse cx="25" cy="32" rx="3.2" ry="3.5" fill="#0f2035"/>
  <ellipse cx="39" cy="32" rx="3.2" ry="3.5" fill="#0f2035"/>
  <circle cx="25" cy="32" r="2.2" fill="url(#iris)"/>
  <circle cx="39" cy="32" r="2.2" fill="url(#iris)"/>
  <circle cx="25" cy="32" r="1" fill="#0a1628"/>
  <circle cx="39" cy="32" r="1" fill="#0a1628"/>
  <circle cx="26" cy="31" r="0.7" fill="white" opacity="0.9"/>
  <circle cx="40" cy="31" r="0.7" fill="white" opacity="0.9"/>
  <!-- Nose -->
  <ellipse cx="32" cy="39" rx="3.2" ry="2.2" fill="#1f4e6e"/>
  <!-- Mouth -->
  <path d="M29 42 Q32 45 35 42" fill="none" stroke="#2d5a7b" stroke-width="0.8" stroke-linecap="round"/>
</svg>